name analog
datacolumns 19
datarows 46
range 0.0 0.0225
endheader
time	ground_force_vx	ground_force_vy	ground_force_vz	ground_force_px	ground_force_py	ground_force_pz	l_ground_force_vx	l_ground_force_vy	l_ground_force_vz	l_ground_force_px	l_ground_force_py	l_ground_force_pz	ground_torque_x	ground_torque_y	ground_torque_z	l_ground_torque_x	l_ground_torque_y	l_ground_torque_z
0.0	-0.0	-0.0	-0.0	-0.0	-0.0	-0.0	-0.1687331199645996	0.6799951791763306	-754.4990844726562	-0.0	-0.0	-0.0	-0.0	-0.0	-0.0	210275.109375	12776.6201171875	-1535.097900390625
0.0005	-0.0	-0.0	-0.0	-0.0	-0.0	-0.0	-0.494514524936676	0.3312063217163086	-754.7525634765625	-0.0	-0.0	-0.0	-0.0	-0.0	-0.0	210202.078125	12944.8095703125	-1565.056640625
0.001	-0.0	-0.0	-0.0	-0.0	-0.0	-0.0	-1.0910533666610718	-0.1147293150424957	-753.7498779296875	-0.0	-0.0	-0.0	-0.0	-0.0	-0.0	210344.921875	12923.0185546875	-1754.0394287109375
0.0015	-0.0	-0.0	-0.0	-0.0	-0.0	-0.0	-1.5282419919967651	-0.1387140452861786	-754.840087890625	-0.0	-0.0	-0.0	-0.0	-0.0	-0.0	210026.296875	13280.359375	-1778.7720947265625
0.002	-0.0	-0.0	-0.0	-0.0	-0.0	-0.0	-1.7251102924346924	-0.3580995798110962	-754.60595703125	-0.0	-0.0	-0.0	-0.0	-0.0	-0.0	210019.09375	13461.0263671875	-1807.9886474609373
0.0025	-0.0	-0.0	-0.0	-0.0	-0.0	-0.0	-1.896585822105408	-0.6222883462905884	-754.7821655273438	-0.0	-0.0	-0.0	-0.0	-0.0	-0.0	210019.125	13568.375	-1850.5450439453125
0.003	-0.0	-0.0	-0.0	-0.0	-0.0	-0.0	-1.659169316291809	-0.8735553026199341	-755.46044921875	-0.0	-0.0	-0.0	-0.0	-0.0	-0.0	210190.046875	13781.5205078125	-1790.0506591796875
0.0035	-0.0	-0.0	-0.0	-0.0	-0.0	-0.0	-1.7027348279953003	-1.2978187799453735	-754.3777465820312	-0.0	-0.0	-0.0	-0.0	-0.0	-0.0	210108.1875	13874.0322265625	-1813.7667236328125
0.004	-0.0	-0.0	-0.0	-0.0	-0.0	-0.0	-1.7821884155273438	-1.350874662399292	-755.48095703125	-0.0	-0.0	-0.0	-0.0	-0.0	-0.0	209929.109375	14130.029296875	-1736.2593994140625
0.0045000000000000005	-0.0	-0.0	-0.0	-0.0	-0.0	-0.0	-1.9633394479751587	-1.66137433052063	-754.4293212890625	-0.0	-0.0	-0.0	-0.0	-0.0	-0.0	209926.078125	14248.9140625	-1889.005126953125
0.005	-0.0	-0.0	-0.0	-0.0	-0.0	-0.0	-1.763736605644226	-1.844322204589844	-755.6053466796875	-0.0	-0.0	-0.0	-0.0	-0.0	-0.0	210006.953125	14421.8642578125	-1924.6695556640625
0.0055	-0.0	-0.0	-0.0	-0.0	-0.0	-0.0	-1.903442144393921	-1.4661834239959717	-755.488525390625	-0.0	-0.0	-0.0	-0.0	-0.0	-0.0	209884.78125	14508.318359375	-1789.778564453125
0.006	-0.0	-0.0	-0.0	-0.0	-0.0	-0.0	-1.5373497009277344	-1.9689104557037356	-754.763427734375	-0.0	-0.0	-0.0	-0.0	-0.0	-0.0	209733.25	14526.2705078125	-1817.262939453125
0.006500000000000001	-0.0	-0.0	-0.0	-0.0	-0.0	-0.0	-1.2520158290863037	-2.2816379070281982	-755.3677368164062	-0.0	-0.0	-0.0	-0.0	-0.0	-0.0	209767.921875	14699.7177734375	-1718.87451171875
0.007	-0.0	-0.0	-0.0	-0.0	-0.0	-0.0	-1.1566956043243408	-1.9688032865524288	-754.3709106445312	-0.0	-0.0	-0.0	-0.0	-0.0	-0.0	209647.34375	14505.794921875	-1637.742919921875
0.0075	-0.0	-0.0	-0.0	-0.0	-0.0	-0.0	-1.3134294748306274	-2.057055711746216	-753.3707885742188	-0.0	-0.0	-0.0	-0.0	-0.0	-0.0	209396.90625	14777.6396484375	-1716.951416015625
0.008	-0.0	-0.0	-0.0	-0.0	-0.0	-0.0	-1.438007354736328	-2.182497978210449	-753.8408813476562	-0.0	-0.0	-0.0	-0.0	-0.0	-0.0	209238.046875	14899.9248046875	-1658.9227294921875
0.0085	-0.0	-0.0	-0.0	-0.0	-0.0	-0.0	-1.4292720556259155	-1.9018146991729736	-753.8990478515625	-0.0	-0.0	-0.0	-0.0	-0.0	-0.0	209339.390625	14873.2890625	-1689.601806640625
0.009000000000000001	-0.0	-0.0	-0.0	-0.0	-0.0	-0.0	-1.5336858034133911	-2.0942304134368896	-752.1734008789062	-0.0	-0.0	-0.0	-0.0	-0.0	-0.0	209254.75	15056.5078125	-1782.0655517578125
0.0095	-0.0	-0.0	-0.0	-0.0	-0.0	-0.0	-1.5652449131011963	-1.825836181640625	-750.3799438476562	-0.0	-0.0	-0.0	-0.0	-0.0	-0.0	209015.578125	14942.6630859375	-1863.1593017578125
0.01	-0.0	-0.0	-0.0	-0.0	-0.0	-0.0	-1.5269441604614258	-1.760401487350464	-750.8269653320312	-0.0	-0.0	-0.0	-0.0	-0.0	-0.0	209202.984375	15011.08203125	-1865.923828125
0.0105	-0.0	-0.0	-0.0	-0.0	-0.0	-0.0	-1.6032404899597168	-1.3816189765930176	-750.9371948242188	-0.0	-0.0	-0.0	-0.0	-0.0	-0.0	209337.8125	14973.44140625	-1888.383056640625
0.011	-0.0	-0.0	-0.0	-0.0	-0.0	-0.0	-1.913522839546204	-1.3375186920166016	-751.2247924804688	-0.0	-0.0	-0.0	-0.0	-0.0	-0.0	209505.375	15118.341796875	-1836.6524658203125
0.0115	-0.0	-0.0	-0.0	-0.0	-0.0	-0.0	-1.7011950016021729	-0.3882017731666565	-750.089599609375	-0.0	-0.0	-0.0	-0.0	-0.0	-0.0	209666.59375	14998.9423828125	-1989.8697509765625
0.012	-0.0	-0.0	-0.0	-0.0	-0.0	-0.0	-1.6472548246383667	0.3849274516105652	-750.4020385742188	-0.0	-0.0	-0.0	-0.0	-0.0	-0.0	209899.984375	14950.248046875	-2031.029541015625
0.0125	-0.0	-0.0	-0.0	-0.0	-0.0	-0.0	-1.4407548904418943	0.5901594161987305	-750.677001953125	-0.0	-0.0	-0.0	-0.0	-0.0	-0.0	210015.84375	15003.255859375	-1967.2984619140625
0.013000000000000001	-0.0	-0.0	-0.0	-0.0	-0.0	-0.0	-1.1414417028427124	0.9832852482795716	-751.723388671875	-0.0	-0.0	-0.0	-0.0	-0.0	-0.0	209924.0625	14879.3525390625	-1915.8653564453125
0.0135	-0.0	-0.0	-0.0	-0.0	-0.0	-0.0	-0.9209417104721068	1.4948160648345947	-751.1107177734375	-0.0	-0.0	-0.0	-0.0	-0.0	-0.0	210298.890625	14813.8017578125	-1945.21875
0.014	-0.0	-0.0	-0.0	-0.0	-0.0	-0.0	-0.7096434831619263	1.734642744064331	-751.4282836914062	-0.0	-0.0	-0.0	-0.0	-0.0	-0.0	210340.015625	14852.8173828125	-1858.235595703125
0.0145	-0.0	-0.0	-0.0	-0.0	-0.0	-0.0	-0.2890989482402801	1.8215527534484863	-749.8566284179688	-0.0	-0.0	-0.0	-0.0	-0.0	-0.0	210592.421875	14784.3505859375	-1828.2574462890625
0.015	-0.0	-0.0	-0.0	-0.0	-0.0	-0.0	-0.0887107849121093	1.8795582056045528	-748.6790771484375	-0.0	-0.0	-0.0	-0.0	-0.0	-0.0	210474.296875	14646.634765625	-1817.42236328125
0.0155	-0.0	-0.0	-0.0	-0.0	-0.0	-0.0	0.0452045202255249	2.097705602645874	-749.9114990234375	-0.0	-0.0	-0.0	-0.0	-0.0	-0.0	211012.015625	14565.0263671875	-1764.7513427734375
0.016	-0.0	-0.0	-0.0	-0.0	-0.0	-0.0	0.374521791934967	2.1976449489593506	-749.522705078125	-0.0	-0.0	-0.0	-0.0	-0.0	-0.0	211142.25	14601.970703125	-1689.9830322265625
0.0165	-0.0	-0.0	-0.0	-0.0	-0.0	-0.0	0.5627994537353516	2.114652395248413	-749.2509155273438	-0.0	-0.0	-0.0	-0.0	-0.0	-0.0	211136.1875	14534.87890625	-1641.2921142578125
0.017	-0.0	-0.0	-0.0	-0.0	-0.0	-0.0	0.6456286311149597	1.9529354572296145	-750.8310546875	-0.0	-0.0	-0.0	-0.0	-0.0	-0.0	211339.828125	14430.1083984375	-1617.390380859375
0.0175	-0.0	-0.0	-0.0	-0.0	-0.0	-0.0	0.4509473443031311	1.8574013710021973	-749.8416748046875	-0.0	-0.0	-0.0	-0.0	-0.0	-0.0	211278.359375	14345.6064453125	-1675.2257080078125
0.018000000000000002	-0.0	-0.0	-0.0	-0.0	-0.0	-0.0	0.7220026850700378	1.5926227569580078	-748.455078125	-0.0	-0.0	-0.0	-0.0	-0.0	-0.0	211448.46875	14408.0009765625	-1641.339599609375
0.0185	-0.0	-0.0	-0.0	-0.0	-0.0	-0.0	0.7379416227340698	1.2502189874649048	-747.4461669921875	-0.0	-0.0	-0.0	-0.0	-0.0	-0.0	211595.0	14420.201171875	-1648.305419921875
0.019	-0.0	-0.0	-0.0	-0.0	-0.0	-0.0	0.709686279296875	1.2851238250732422	-748.292724609375	-0.0	-0.0	-0.0	-0.0	-0.0	-0.0	211427.09375	14539.6767578125	-1660.3551025390625
0.0195	-0.0	-0.0	-0.0	-0.0	-0.0	-0.0	0.556167721748352	0.8654745817184448	-746.3338623046875	-0.0	-0.0	-0.0	-0.0	-0.0	-0.0	211427.171875	14330.248046875	-1691.6861572265625
0.02	-0.0	-0.0	-0.0	-0.0	-0.0	-0.0	0.6896612048149109	1.180230975151062	-746.517333984375	-0.0	-0.0	-0.0	-0.0	-0.0	-0.0	211495.34375	14397.80078125	-1684.7607421875
0.0205	-0.0	-0.0	-0.0	-0.0	-0.0	-0.0	0.852943480014801	1.489534616470337	-746.55712890625	-0.0	-0.0	-0.0	-0.0	-0.0	-0.0	211942.109375	14372.736328125	-1764.723876953125
0.021	-0.0	-0.0	-0.0	-0.0	-0.0	-0.0	0.7903916835784912	2.360612630844116	-747.78759765625	-0.0	-0.0	-0.0	-0.0	-0.0	-0.0	212430.390625	14147.4111328125	-1824.51513671875
0.021500000000000002	-0.0	-0.0	-0.0	-0.0	-0.0	-0.0	1.2158901691436768	2.649458169937134	-748.0955810546875	-0.0	-0.0	-0.0	-0.0	-0.0	-0.0	212801.328125	14208.0185546875	-1723.7469482421875
0.022	-0.0	-0.0	-0.0	-0.0	-0.0	-0.0	1.2178795337677002	3.4519565105438232	-750.1199951171875	-0.0	-0.0	-0.0	-0.0	-0.0	-0.0	213712.25	14216.75390625	-1830.899169921875
0.0225	-0.0	-0.0	-0.0	-0.0	-0.0	-0.0	1.4140143394470217	3.9125161170959473	-751.855224609375	-0.0	-0.0	-0.0	-0.0	-0.0	-0.0	214601.59375	14315.3896484375	-1692.836181640625
